HIERARCHY
ROOT Hips
{
    OFFSET   0.000000   0.000000   0.000000
    CHANNELS 6 Xposition Yposition Zposition Zrotation Xrotation Yrotation
    JOINT Chest
    {
        OFFSET   0.000000   8.007230   0.000000
        CHANNELS 3 Zrotation Xrotation Yrotation
        JOINT Chest2
        {
            OFFSET   0.000000  22.077100   0.000000
            CHANNELS 3 Zrotation Xrotation Yrotation
            JOINT Neck
            {
                OFFSET   0.000000  23.254800  -0.000021
                CHANNELS 3 Zrotation Xrotation Yrotation
                JOINT Head
                {
                    OFFSET   0.000000  14.370000   1.956610
                    CHANNELS 3 Zrotation Xrotation Yrotation
                    End Site
                    {
                        OFFSET   0.000000  19.566000   0.000000
                    }
                }
            }
            JOINT LeftCollar
            {
                OFFSET   3.911900  19.017000  -0.467063
                CHANNELS 3 Zrotation Xrotation Yrotation
                JOINT LeftShoulder
                {
                    OFFSET  10.383700   0.000000   0.000000
                    CHANNELS 3 Zrotation Xrotation Yrotation
                    JOINT LeftElbow
                    {
                        OFFSET  26.662100   0.001529   0.000325
                        CHANNELS 3 Zrotation Xrotation Yrotation
                        JOINT LeftWrist
                        {
                            OFFSET  28.869000  -0.000011  -0.000096
                            CHANNELS 3 Zrotation Xrotation Yrotation
                            JOINT LeftFinger0
                            {
                                OFFSET   2.044650  -2.323460   3.252850
                                CHANNELS 3 Zrotation Xrotation Yrotation
                                JOINT LeftFinger01
                                {
                                    OFFSET   3.088130   0.000000   0.000000
                                    CHANNELS 3 Zrotation Xrotation Yrotation
                                    JOINT LeftFinger02
                                    {
                                        OFFSET   2.639460   0.000000   0.000000
                                        CHANNELS 3 Zrotation Xrotation Yrotation
                                        End Site
                                        {
                                            OFFSET   2.582190   0.000000   0.000000
                                        }
                                    }
                                }
                            }
                            JOINT LeftFinger1
                            {
                                OFFSET   8.364480   0.000000   3.252850
                                CHANNELS 3 Zrotation Xrotation Yrotation
                                JOINT LeftFinger11
                                {
                                    OFFSET   4.646930   0.000000   0.000000
                                    CHANNELS 3 Zrotation Xrotation Yrotation
                                    JOINT LeftFinger12
                                    {
                                        OFFSET   2.323460   0.000000   0.000000
                                        CHANNELS 3 Zrotation Xrotation Yrotation
                                        End Site
                                        {
                                            OFFSET   2.273050   0.000000   0.000000
                                        }
                                    }
                                }
                            }
                            JOINT LeftFinger2
                            {
                                OFFSET   8.364480   0.000016   1.078090
                                CHANNELS 3 Zrotation Xrotation Yrotation
                                JOINT LeftFinger21
                                {
                                    OFFSET   5.111620   0.000000   0.000000
                                    CHANNELS 3 Zrotation Xrotation Yrotation
                                    JOINT LeftFinger22
                                    {
                                        OFFSET   2.788160   0.000017   0.000000
                                        CHANNELS 3 Zrotation Xrotation Yrotation
                                        End Site
                                        {
                                            OFFSET   2.727660   0.000000   0.000000
                                        }
                                    }
                                }
                            }
                            JOINT LeftFinger3
                            {
                                OFFSET   7.899780   0.000015  -1.078090
                                CHANNELS 3 Zrotation Xrotation Yrotation
                                JOINT LeftFinger31
                                {
                                    OFFSET   4.646920   0.000000   0.000000
                                    CHANNELS 3 Zrotation Xrotation Yrotation
                                    JOINT LeftFinger32
                                    {
                                        OFFSET   2.323470   0.000000   0.000000
                                        CHANNELS 3 Zrotation Xrotation Yrotation
                                        End Site
                                        {
                                            OFFSET   2.273050   0.000000   0.000000
                                        }
                                    }
                                }
                            }
                            JOINT LeftFinger4
                            {
                                OFFSET   7.435090   0.000000  -3.252850
                                CHANNELS 3 Zrotation Xrotation Yrotation
                                JOINT LeftFinger41
                                {
                                    OFFSET   3.717550   0.000000   0.000000
                                    CHANNELS 3 Zrotation Xrotation Yrotation
                                    JOINT LeftFinger42
                                    {
                                        OFFSET   1.858760   0.000000   0.000000
                                        CHANNELS 3 Zrotation Xrotation Yrotation
                                        End Site
                                        {
                                            OFFSET   1.818440   0.000000   0.000000
                                        }
                                    }
                                }
                            }
                        }
                    }
                }
            }
            JOINT RightCollar
            {
                OFFSET  -3.911900  19.017000  -0.467062
                CHANNELS 3 Zrotation Xrotation Yrotation
                JOINT RightShoulder
                {
                    OFFSET -10.383700   0.000015   0.000000
                    CHANNELS 3 Zrotation Xrotation Yrotation
                    JOINT RightElbow
                    {
                        OFFSET -26.662100   0.001341   0.000385
                        CHANNELS 3 Zrotation Xrotation Yrotation
                        JOINT RightWrist
                        {
                            OFFSET -28.869000   0.000025  -0.000080
                            CHANNELS 3 Zrotation Xrotation Yrotation
                            JOINT RightFinger0
                            {
                                OFFSET  -2.044650  -2.323490   3.252850
                                CHANNELS 3 Zrotation Xrotation Yrotation
                                JOINT RightFinger01
                                {
                                    OFFSET  -3.088130   0.000000   0.000000
                                    CHANNELS 3 Zrotation Xrotation Yrotation
                                    JOINT RightFinger02
                                    {
                                        OFFSET  -2.639460   0.000000   0.000000
                                        CHANNELS 3 Zrotation Xrotation Yrotation
                                        End Site
                                        {
                                            OFFSET  -2.582190   0.000000   0.000000
                                        }
                                    }
                                }
                            }
                            JOINT RightFinger1
                            {
                                OFFSET  -8.364480   0.000000   3.252850
                                CHANNELS 3 Zrotation Xrotation Yrotation
                                JOINT RightFinger11
                                {
                                    OFFSET  -4.646930   0.000000   0.000000
                                    CHANNELS 3 Zrotation Xrotation Yrotation
                                    JOINT RightFinger12
                                    {
                                        OFFSET  -2.323470   0.000000   0.000000
                                        CHANNELS 3 Zrotation Xrotation Yrotation
                                        End Site
                                        {
                                            OFFSET  -2.273050   0.000000   0.000000
                                        }
                                    }
                                }
                            }
                            JOINT RightFinger2
                            {
                                OFFSET  -8.364480   0.000000   1.078090
                                CHANNELS 3 Zrotation Xrotation Yrotation
                                JOINT RightFinger21
                                {
                                    OFFSET  -5.111610   0.000000   0.000000
                                    CHANNELS 3 Zrotation Xrotation Yrotation
                                    JOINT RightFinger22
                                    {
                                        OFFSET  -2.788160   0.000000   0.000000
                                        CHANNELS 3 Zrotation Xrotation Yrotation
                                        End Site
                                        {
                                            OFFSET  -2.727660   0.000000   0.000000
                                        }
                                    }
                                }
                            }
                            JOINT RightFinger3
                            {
                                OFFSET  -7.899780   0.000000  -1.078090
                                CHANNELS 3 Zrotation Xrotation Yrotation
                                JOINT RightFinger31
                                {
                                    OFFSET  -4.646920   0.000000   0.000000
                                    CHANNELS 3 Zrotation Xrotation Yrotation
                                    JOINT RightFinger32
                                    {
                                        OFFSET  -2.323470   0.000000   0.000000
                                        CHANNELS 3 Zrotation Xrotation Yrotation
                                        End Site
                                        {
                                            OFFSET  -2.273050   0.000000   0.000000
                                        }
                                    }
                                }
                            }
                            JOINT RightFinger4
                            {
                                OFFSET  -7.435090   0.000000  -3.252850
                                CHANNELS 3 Zrotation Xrotation Yrotation
                                JOINT RightFinger41
                                {
                                    OFFSET  -3.717550   0.000000   0.000000
                                    CHANNELS 3 Zrotation Xrotation Yrotation
                                    JOINT RightFinger42
                                    {
                                        OFFSET  -1.858770   0.000000   0.000000
                                        CHANNELS 3 Zrotation Xrotation Yrotation
                                        End Site
                                        {
                                            OFFSET  -1.818440   0.000000   0.000000
                                        }
                                    }
                                }
                            }
                        }
                    }
                }
            }
        }
    }
    JOINT LeftHip
    {
        OFFSET   9.783010   0.000000   0.000000
        CHANNELS 3 Zrotation Xrotation Yrotation
        JOINT LeftKnee
        {
            OFFSET   0.000070 -41.789100   0.000028
            CHANNELS 3 Zrotation Xrotation Yrotation
            JOINT LeftAnkle
            {
                OFFSET   0.000087 -41.133200  -0.000100
                CHANNELS 3 Zrotation Xrotation Yrotation
                JOINT LeftToe
                {
                    OFFSET   0.000000  -6.358960  14.674500
                    CHANNELS 3 Zrotation Xrotation Yrotation
                    End Site
                    {
                        OFFSET   0.000000   0.000000   3.913200
                    }
                }
            }
        }
    }
    JOINT RightHip
    {
        OFFSET  -9.783020   0.000000   0.000000
        CHANNELS 3 Zrotation Xrotation Yrotation
        JOINT RightKnee
        {
            OFFSET   0.000044 -41.789100  -0.000870
            CHANNELS 3 Zrotation Xrotation Yrotation
            JOINT RightAnkle
            {
                OFFSET  -0.000090 -41.133200  -0.000245
                CHANNELS 3 Zrotation Xrotation Yrotation
                JOINT RightToe
                {
                    OFFSET   0.000000  -6.358960  14.674500
                    CHANNELS 3 Zrotation Xrotation Yrotation
                    End Site
                    {
                        OFFSET   0.000000   0.000000   3.913200
                    }
                }
            }
        }
    }
}
MOTION
Frames: 5
Frame Time:   0.016667
 -0.422289  90.018400   2.526160  -0.930945  -3.929650  -1.903690  -0.132316   4.217490   1.014740  -0.341134   8.431980   2.047630   3.481570   0.446787  -0.029997   5.720560   0.895239   5.608250  -3.728100  -4.026080   1.526860 -70.403600  26.847800  -1.357540  -3.984190  -9.293610 -13.963200   7.028690   0.637584  11.030600  42.541200  28.196500 -65.537800 -19.405100  -0.001549  -0.000430  -4.702560  -0.003881   0.004476 -19.538700   5.295640 -14.578200 -16.540800  -0.006787   0.006259 -11.578600  -0.006368   0.003794 -24.051500   3.363570  -7.489250 -24.271700  -0.009326   0.005862 -16.164900  -0.011824   0.007543 -16.910500   2.279440  -7.453330 -17.059000  -0.001835   0.002658 -11.361300  -0.003215   0.002788 -20.086300   1.718200  -4.688780 -30.234900  -0.002793   0.002746 -20.136500  -0.002530   0.002577   8.678480  -4.496630   6.799810  38.721500  25.906900  56.591900  -7.857510  -7.887960  94.355200  27.572700 -35.395300  36.621800 -52.935100  32.231000  58.048500  10.371200  -0.000682   0.000085   0.185617  -0.000248  -0.003684  28.167200   3.674640   6.825320  23.225000  -0.005350   0.002188  16.257500  -0.003497   0.000660  85.205400  -0.001460   0.000248  85.205400   0.005579   0.001003  63.904000   0.006418   0.003376  88.995700  -4.999150  -0.093010  94.309300   0.000442   0.009763  70.732000   0.008412  -0.002027  88.983900  -9.997440  -0.180184 110.000000  -0.006258  -0.000223  80.000000  -0.003633   0.002355   0.173211   5.347330   1.644600   0.531885   0.216599  10.452800  -4.938220  -3.900150   5.878610  -0.000000   0.000000  -0.000000   2.610090   4.441240  -8.923390  -0.278602   2.072490  -6.368400  -9.696520   0.309718   1.215310  -0.000000   0.000000   0.000000
 -0.412995  90.019000   2.521200  -0.937185  -3.929580  -1.929920  -0.131791   4.223600   1.043390  -0.342357   8.444090   2.105160   3.457490   0.419072  -0.029553   5.680900   0.839848   5.652470  -3.767120  -4.061230   1.535880 -70.465700  26.718500  -1.241480  -3.988650  -9.210300 -13.930300   7.029580   0.674402  11.022500  42.530000  28.199500 -65.555500 -19.410300  -0.001603  -0.000459  -4.705180  -0.003852   0.004518 -19.524900   5.291630 -14.575500 -16.529100  -0.006893   0.006305 -11.570400  -0.006723   0.003885 -24.034400   3.358380  -7.484030 -24.254100  -0.009491   0.005901 -16.153200  -0.011920   0.007577 -16.893300   2.275190  -7.447040 -17.041500  -0.001779   0.003005 -11.349600  -0.003227   0.002778 -20.073100   1.715140  -4.683200 -30.214800  -0.003197   0.002889 -20.123100  -0.002539   0.002617   8.734390  -4.507470   6.825110  38.766600  26.032500  56.247200  -8.025480  -7.276770  94.371800  27.534600 -35.457200  36.660800 -52.886300  32.161400  57.752200  10.351400  -0.000868   0.000055   0.175731  -0.000321  -0.003730  28.167900   3.679740   6.834520  23.226000  -0.005355   0.002163  16.258200  -0.003507   0.000660  85.231800  -0.001436   0.000239  85.231800   0.005541   0.000988  63.923800   0.006553   0.003361  88.995700  -4.999130  -0.093064  94.341200   0.000427   0.009786  70.755900   0.008414  -0.002041  88.983900  -9.997450  -0.180229 110.000000  -0.006290  -0.000223  80.000000  -0.003667   0.002368   0.171741   5.331960   1.626570   0.533306   0.241191  10.474400  -4.931600  -3.908280   5.900690  -0.000000   0.000000   0.000000   2.610700   4.437560  -8.921720  -0.284806   2.071870  -6.360400  -9.687650   0.314243   1.233390   0.000000   0.000000   0.000000
 -0.403967  90.019600   2.516310  -0.943303  -3.929530  -1.948950  -0.131433   4.230110   1.068490  -0.343606   8.457020   2.155590   3.436640   0.393434  -0.029147   5.646600   0.788733   5.698390  -3.805400  -4.097670   1.544910 -70.524700  26.602100  -1.125130  -3.995040  -9.128320 -13.904900   7.030670   0.707148  11.013900  42.517200  28.205100 -65.578900 -19.420300  -0.001656  -0.000505  -4.710170  -0.003822   0.004557 -19.513500   5.284380 -14.568100 -16.518600  -0.007211   0.006351 -11.563000  -0.007780   0.003976 -24.018700   3.350470  -7.471830 -24.237500  -0.010152   0.005937 -16.142200  -0.012015   0.007610 -16.876800   2.269670  -7.437290 -17.024400  -0.001717   0.003421 -11.338200  -0.003232   0.002769 -20.059600   1.710070  -4.672200 -30.194100  -0.004330   0.003034 -20.109300  -0.002545   0.002657   8.800330  -4.523550   6.852060  38.816100  26.185400  55.851000  -8.192570  -6.639620  94.351900  27.524700 -35.584500  36.772300 -52.837200  32.084400  57.474600  10.335300  -0.001044   0.000000   0.167678  -0.000397  -0.003774  28.172600   3.715450   6.898920  23.233200  -0.005359   0.002139  16.263200  -0.003517   0.000660  85.258200  -0.001411   0.000224  85.258200   0.005502   0.000972  63.943600   0.006687   0.003350  88.995700  -4.999120  -0.093120  94.373100   0.000419   0.009809  70.779800   0.008417  -0.002051  88.983900  -9.997460  -0.180278 110.000000  -0.006318  -0.000224  80.000000  -0.003702   0.002380   0.172636   5.329800   1.612080   0.533454   0.244694  10.490100  -4.925160  -3.916430   5.918260  -0.000000   0.000000  -0.000000   2.612140   4.435190  -8.916910  -0.295942   2.071220  -6.359000  -9.678600   0.319383   1.246810  -0.000000   0.000000   0.000000
 -0.396741  90.020100   2.512590  -0.948280  -3.930510  -1.956540  -0.132312   4.236630   1.090240  -0.346655   8.469950   2.199370   3.420660   0.373513  -0.028794   5.620230   0.749184   5.735130  -3.842690  -4.136740   1.544080 -70.577700  26.516600  -1.009510  -4.004370  -9.059150 -13.881300   7.027860   0.739671  11.007500  42.495700  28.212300 -65.614700 -19.434100  -0.001712  -0.000555  -4.717040  -0.003793   0.004603 -19.505000   5.276160 -14.552200 -16.510200  -0.008515   0.006373 -11.557100  -0.010248   0.004064 -24.003500   3.336850  -7.449040 -24.220700  -0.012082   0.005972 -16.131000  -0.012111   0.007640 -16.862200   2.260910  -7.418310 -17.008700  -0.001650   0.003883 -11.327800  -0.003229   0.002762 -20.044500   1.699490  -4.648760 -30.170100  -0.006422   0.003185 -20.093300  -0.002550   0.002703   8.878000  -4.548030   6.878550  38.828300  26.403000  55.411900  -8.340900  -6.032870  94.296700  27.583700 -35.735500  36.996600 -52.875400  32.083100  57.328300  10.274400  -0.001208  -0.000076   0.137189  -0.000479  -0.003807  28.218400   3.858480   7.135100  23.283300  -0.005364   0.002114  16.298300  -0.003515   0.000659  85.238900  -0.001382   0.000210  85.238900   0.005465   0.000959  63.929200   0.006818   0.003339  88.995700  -4.999090  -0.093179  94.348700   0.000417   0.009821  70.761500   0.008428  -0.002067  88.983900  -9.997460  -0.180327 110.000000  -0.006349  -0.000219  80.000000  -0.003726   0.002389   0.174367   5.344940   1.604100   0.527395   0.212648  10.498800  -4.915160  -3.897870   5.928070   0.000000   0.000000  -0.000000   2.613690   4.437240  -8.908710  -0.307616   2.066860  -6.363750  -9.669690   0.324261   1.251560   0.000000   0.000000   0.000000
 -0.390284  90.020600   2.507960  -0.951476  -3.932790  -1.957630  -0.133849   4.245010   1.110480  -0.351885   8.486600   2.240190   3.408830   0.354790  -0.028469   5.600750   0.711912   5.753660  -3.878890  -4.179750   1.537870 -70.624500  26.452100  -0.906272  -4.015550  -9.002900 -13.853600   7.022460   0.783939  11.000100  42.473900  28.220000 -65.651600 -19.443100  -0.001767  -0.000593  -4.721540  -0.003765   0.004650 -19.495300   5.268730 -14.540900 -16.501100  -0.010980   0.006436 -11.550800  -0.013193   0.004153 -23.985000   3.327710  -7.433260 -24.201300  -0.014511   0.006004 -16.118000  -0.012206   0.007668 -16.844200   2.255180  -7.405330 -16.990100  -0.001580   0.004360 -11.315400  -0.003221   0.002756 -20.024000   1.692170  -4.632380 -30.138600  -0.008878   0.003340 -20.072300  -0.002552   0.002750   8.962230  -4.579080   6.902740  38.812800  26.664000  54.937700  -8.485330  -5.460090  94.221600  27.624400 -35.903900  37.240500 -52.951800  32.112100  57.227700  10.191000  -0.001364  -0.000170   0.095501  -0.000562  -0.003839  28.253800   3.985890   7.370870  23.327300  -0.005371   0.002086  16.329100  -0.003511   0.000656  85.194400  -0.001352   0.000202  85.194400   0.005432   0.000948  63.895800   0.006948   0.003329  88.995700  -4.999080  -0.093237  94.296300   0.000415   0.009829  70.722200   0.008439  -0.002085  88.983900  -9.997460  -0.180370 110.000000  -0.006380  -0.000210  80.000000  -0.003747   0.002401   0.175943   5.360080   1.597820   0.521365   0.180608  10.501500  -4.906150  -3.879360   5.931270  -0.000000   0.000000   0.000000   2.614920   4.439320  -8.898140  -0.320791   2.063480  -6.373260  -9.659890   0.328276   1.252240   0.000000   0.000000  -0.000000
